HIERARCHY
ROOT SpineBase
{
  OFFSET 0.000000 0.000000 0.000000
  CHANNELS 6 Xposition Yposition Zposition Zrotation Xrotation Yrotation
  JOINT SpineMid
  {
    OFFSET 0.000000 31.314974 0.000000
    CHANNELS 3 Zrotation Xrotation Yrotation
    JOINT SpineShoulder
    {
      OFFSET 0.093259 23.254348 -0.806516
      CHANNELS 3 Zrotation Xrotation Yrotation
      JOINT Neck
      {
        OFFSET 0.058730 7.695558 -0.591608
        CHANNELS 3 Zrotation Xrotation Yrotation
        JOINT Head
        {
          OFFSET 4.598644 13.248070 3.775169
          CHANNELS 3 Zrotation Xrotation Yrotation
          End Site
          {
            OFFSET 0 0 0
          }
        }
      }
      JOINT ShoulderLeft
      {
        OFFSET -11.927057 -2.807829 -10.640826
        CHANNELS 3 Zrotation Xrotation Yrotation
        JOINT ElbowLeft
        {
          OFFSET -6.078609 -25.337184 -6.585676
          CHANNELS 3 Zrotation Xrotation Yrotation
          JOINT WristLeft
          {
            OFFSET -0.245761 -21.278081 -5.555526
            CHANNELS 3 Zrotation Xrotation Yrotation
            JOINT HandLeft
            {
              OFFSET -0.277218 -7.971907 -1.373800
              CHANNELS 3 Zrotation Xrotation Yrotation
              JOINT HandTipLeft
              {
                OFFSET 0.379570 -8.454047 0.100042
                CHANNELS 3 Zrotation Xrotation Yrotation
                End Site
                {
                  OFFSET 0 0 0
                }
              }
              JOINT ThumbLeft
              {
                OFFSET -3.174579 3.299315 -1.843219
                CHANNELS 3 Zrotation Xrotation Yrotation
                End Site
                {
                  OFFSET 0 0 0
                }
              }
            }
          }
        }
      }
      JOINT ShoulderRight
      {
        OFFSET 12.713788 -3.786171 11.897733
        CHANNELS 3 Zrotation Xrotation Yrotation
        JOINT ElbowRight
        {
          OFFSET 2.639232 -26.421218 6.488317
          CHANNELS 3 Zrotation Xrotation Yrotation
          JOINT WristRight
          {
            OFFSET 1.840922 -24.957990 -0.196825
            CHANNELS 3 Zrotation Xrotation Yrotation
            JOINT HandRight
            {
              OFFSET 2.207317 -9.003685 2.968260
              CHANNELS 3 Zrotation Xrotation Yrotation
              JOINT HandTipRight
              {
                OFFSET -0.310804 -7.002761 -0.107584
                CHANNELS 3 Zrotation Xrotation Yrotation
                End Site
                {
                  OFFSET 0 0 0
                }
              }
              JOINT ThumbRight
              {
                OFFSET -3.491212 -2.386705 0.305419
                CHANNELS 3 Zrotation Xrotation Yrotation
                End Site
                {
                  OFFSET 0 0 0
                }
              }
            }
          }
        }
      }
    }
  }
  JOINT HipLeft
  {
    OFFSET -4.867284 1.653266 -7.526416
    CHANNELS 3 Zrotation Xrotation Yrotation
    JOINT KneeLeft
    {
      OFFSET -11.549198 -36.910414 -2.886955
      CHANNELS 3 Zrotation Xrotation Yrotation
      JOINT AnkleLeft
      {
        OFFSET -9.114495 -38.034497 4.904711
        CHANNELS 3 Zrotation Xrotation Yrotation
        JOINT FootLeft
        {
          OFFSET 0.745342 -7.821433 -6.870954
          CHANNELS 3 Zrotation Xrotation Yrotation
          End Site
          {
            OFFSET 0 0 0
          }
        }
      }
    }
  }
  JOINT HipRight
  {
    OFFSET 5.465787 0.122425 0.529537
    CHANNELS 3 Zrotation Xrotation Yrotation
    JOINT KneeRight
    {
      OFFSET -5.760509 -39.241514 3.632225
      CHANNELS 3 Zrotation Xrotation Yrotation
      JOINT AnkleRight
      {
        OFFSET -7.264433 -35.279094 7.055639
        CHANNELS 3 Zrotation Xrotation Yrotation
        JOINT FootRight
        {
          OFFSET 5.646097 -5.365665 -9.234548
          CHANNELS 3 Zrotation Xrotation Yrotation
          End Site
          {
            OFFSET 0 0 0
          }
        }
      }
    }
  }
}
MOTION
Frames: 14
Frame Time: 0.033333
-30.168401 82.924903 341.971267 -0.000000 0.000000 -37.940980 0.000000 0.000000 37.940980 -0.000000 0.000000 0.000000 -0.000000 0.000000 0.000000 0.000000 0.000000 0.000000 -0.000000 0.000000 0.000000 -0.000000 0.000000 0.000000 -0.000000 0.000000 0.000000 -0.000000 0.000000 0.000000 0.000000 0.000000 0.000000 0.000000 0.000000 0.000000 -0.000000 0.000000 0.000000 -0.000000 0.000000 0.000000 -0.000000 0.000000 0.000000 -0.000000 0.000000 0.000000 0.000000 0.000000 0.000000 0.000000 0.000000 0.000000 0.000000 0.000000 37.940980 -0.000000 0.000000 0.000000 -0.000000 0.000000 0.000000 0.000000 0.000000 0.000000 0.000000 0.000000 37.940980 -0.000000 0.000000 0.000000 -0.000000 0.000000 0.000000 0.000000 0.000000 0.000000
-30.175419 82.925814 341.955000 -0.007500 0.008964 -38.041530 0.011431 -0.002438 38.041531 -0.000000 0.000000 0.000000 -0.000000 0.000000 0.000000 0.000000 0.000000 0.000000 -0.000000 0.000000 0.000000 -0.000000 0.000000 0.000000 2.775061 -4.349929 -0.223217 -4.499435 5.433943 0.609463 0.000000 0.000000 0.000000 0.000000 0.000000 0.000000 -0.000000 0.000000 0.000000 -0.000000 0.000000 0.000000 -1.984649 0.864611 -0.430298 4.006174 1.270397 0.327972 0.000000 0.000000 0.000000 0.000000 0.000000 0.000000 0.011431 -0.002438 38.041531 -0.000000 0.000000 0.000000 -0.000000 0.000000 0.000000 0.000000 0.000000 0.000000 0.011431 -0.002438 38.041531 -0.000000 0.000000 0.000000 -5.463040 -8.025602 0.683709 0.000000 0.000000 0.000000
-30.178229 82.926722 341.939862 -0.010589 0.019057 -38.111295 0.020093 -0.008459 38.111298 -0.000000 0.000000 0.000000 -0.000000 0.000000 0.000000 0.000000 0.000000 0.000000 -0.000000 0.000000 0.000000 -0.000000 0.000000 0.000000 5.090040 -7.817906 -0.260903 -8.248341 9.842821 1.491835 0.000000 0.000000 0.000000 0.000000 0.000000 0.000000 -0.000000 0.000000 0.000000 -0.000000 0.000000 0.000000 -3.631715 1.711376 -0.733125 7.229468 2.005111 0.613233 0.000000 0.000000 0.000000 0.000000 0.000000 0.000000 0.020093 -0.008459 38.111298 -0.000000 0.000000 0.000000 -0.000000 0.000000 0.000000 0.000000 0.000000 0.000000 0.020093 -0.008459 38.111298 -0.000000 0.000000 0.000000 -10.927292 -15.959004 0.645261 0.000000 0.000000 0.000000
-30.176830 82.927625 341.925854 -0.009265 0.030276 -38.150372 0.025989 -0.018086 38.150378 -0.000000 0.000000 0.000000 -0.000000 0.000000 0.000000 0.000000 0.000000 0.000000 -0.000000 0.000000 0.000000 -0.000000 0.000000 0.000000 6.972124 -10.432011 -0.205627 -11.226894 13.269410 2.418790 0.000000 0.000000 0.000000 0.000000 0.000000 0.000000 -0.000000 0.000000 0.000000 -0.000000 0.000000 0.000000 -4.931837 2.529271 -0.914065 9.632002 2.140933 0.868620 0.000000 0.000000 0.000000 0.000000 0.000000 0.000000 0.025989 -0.018086 38.150378 -0.000000 0.000000 0.000000 -0.471065 0.671721 0.478318 0.000000 0.000000 0.000000 0.025989 -0.018086 38.150378 -0.000000 0.000000 0.000000 -15.960222 -22.877958 -0.003823 0.000000 0.000000 0.000000
-30.171222 82.928524 341.912974 -0.003527 0.042622 -38.158825 0.029107 -0.031335 38.158834 -0.000000 0.000000 0.000000 -0.000000 0.000000 0.000000 0.000000 0.000000 0.000000 -0.000000 0.000000 0.000000 -0.000000 0.000000 0.000000 8.446855 -12.243297 -0.125981 -13.403005 15.789657 3.218050 0.000000 0.000000 0.000000 0.000000 0.000000 0.000000 -0.000000 0.000000 0.000000 -0.000000 0.000000 0.000000 -5.878907 3.310646 -0.979554 11.191373 1.634188 1.095164 0.000000 0.000000 0.000000 0.000000 0.000000 0.000000 0.029107 -0.031335 38.158834 -0.000000 0.000000 0.000000 -0.558472 0.754583 0.563195 0.000000 0.000000 0.000000 0.029107 -0.031335 38.158834 -0.000000 0.000000 0.000000 -20.112355 -28.148525 -0.918360 0.000000 0.000000 0.000000
-30.161406 82.929419 341.901224 0.006625 0.056093 -38.136684 0.029429 -0.048210 38.136693 -0.000000 0.000000 0.000000 -0.000000 0.000000 0.000000 0.000000 0.000000 0.000000 -0.000000 0.000000 0.000000 -0.000000 0.000000 0.000000 9.535652 -13.301473 -0.069602 -14.745632 17.476986 3.770623 0.000000 0.000000 0.000000 0.000000 0.000000 0.000000 -0.000000 0.000000 0.000000 -0.000000 0.000000 0.000000 -6.468538 4.050848 -0.936113 11.894224 0.458073 1.278533 0.000000 0.000000 0.000000 0.000000 0.000000 0.000000 0.029429 -0.048210 38.136693 -0.000000 0.000000 0.000000 -0.610878 0.767710 0.610611 0.000000 0.000000 0.000000 0.029429 -0.048210 38.136693 -0.000000 0.000000 0.000000 -22.999339 -31.530679 -1.668817 0.000000 0.000000 0.000000
-30.145765 82.929457 341.892804 0.021803 0.069912 -38.044054 0.025914 -0.068495 38.044057 -0.000000 0.000000 0.000000 -0.000000 0.000000 0.000000 0.000000 0.000000 0.000000 -0.000000 0.000000 0.000000 -0.000000 0.000000 0.000000 10.433534 -14.385863 0.020830 -15.442886 18.957181 4.152692 0.000000 0.000000 0.000000 0.000000 0.000000 0.000000 -0.000000 0.000000 0.000000 -0.000000 0.000000 0.000000 -7.554352 4.491130 -1.128640 11.683618 -3.147747 1.867058 0.000000 0.000000 0.000000 0.000000 0.000000 0.000000 0.025914 -0.068495 38.044057 -0.000000 0.000000 0.000000 -0.665517 0.758063 0.657825 0.000000 0.000000 0.000000 0.025914 -0.068495 38.044057 -0.000000 0.000000 0.000000 -20.733926 -28.743202 -0.515403 0.000000 0.000000 0.000000
-30.123013 82.930805 341.884736 0.046456 0.083824 -37.946054 0.014910 -0.094670 37.946032 -0.000000 0.000000 0.000000 -0.000000 0.000000 0.000000 0.000000 0.000000 0.000000 -0.000000 0.000000 0.000000 -0.000000 0.000000 0.000000 10.956043 -13.342695 -0.145759 -14.692637 19.726955 3.964745 0.000000 0.000000 0.000000 0.000000 0.000000 0.000000 -0.000000 0.000000 0.000000 -0.866122 -0.316250 -0.018898 -6.593277 5.252247 -0.900621 9.425502 -5.767602 1.783254 0.000000 0.000000 0.000000 0.000000 0.000000 0.000000 0.014910 -0.094670 37.946032 -0.000000 0.000000 0.000000 -0.631921 0.473208 0.600969 0.000000 0.000000 0.000000 0.014910 -0.094670 37.946032 -0.000000 0.000000 0.000000 -20.457921 -28.305747 -0.086271 0.000000 0.000000 0.000000
-30.096599 82.933360 341.874505 0.072168 0.095588 -37.858414 0.001685 -0.119760 37.858356 -0.000000 0.000000 0.000000 -0.000000 0.000000 0.000000 0.000000 0.000000 0.000000 -0.000000 0.000000 0.000000 -0.000000 0.000000 0.000000 10.674207 -12.816609 -0.199427 -12.326045 19.171905 3.269767 0.000000 0.000000 0.000000 0.000000 0.000000 0.000000 -0.000000 0.000000 0.000000 -1.290509 -0.520608 -0.034116 -4.415938 6.589465 -0.015444 7.213023 -7.708159 0.924648 0.000000 0.000000 0.000000 0.000000 0.000000 0.000000 0.001685 -0.119760 37.858356 -0.000000 0.000000 0.000000 -0.566034 0.371858 0.533253 0.000000 0.000000 0.000000 0.001685 -0.119760 37.858356 -0.000000 0.000000 0.000000 -22.833131 -31.164114 -0.825026 0.000000 0.000000 0.000000
-30.062987 82.934768 341.862586 0.101225 0.114430 -37.784048 -0.009891 -0.152457 37.783933 -0.000000 0.000000 0.000000 -0.000000 0.000000 0.000000 0.000000 0.000000 0.000000 -0.000000 0.000000 0.000000 1.570904 -0.119794 -0.407323 7.487045 -9.274817 -0.093974 -9.616822 14.021958 2.275029 0.000000 0.000000 0.000000 0.000000 0.000000 0.000000 0.757913 1.094249 0.288681 0.191355 -1.522891 -0.320480 -7.307460 7.061375 -0.006795 6.884131 -10.069185 1.053050 0.000000 0.000000 0.000000 0.000000 0.000000 0.000000 -0.009891 -0.152457 37.783933 -0.000000 0.000000 0.000000 -0.000000 0.000000 0.000000 0.000000 0.000000 0.000000 -0.009891 -0.152457 37.783933 -0.000000 0.000000 0.000000 -21.692633 -29.747782 -0.204954 0.000000 0.000000 0.000000
-29.974455 82.940059 341.834231 0.211360 0.152933 -37.712968 -0.073654 -0.250273 37.712525 -0.000000 0.000000 0.000000 -0.000000 0.000000 0.000000 0.000000 0.000000 0.000000 0.695522 0.603486 -0.329257 1.361522 0.372750 -0.221649 5.419955 -6.267043 -0.095871 -7.066198 8.293683 1.533951 0.000000 0.000000 0.000000 0.000000 0.000000 0.000000 0.719422 2.040678 0.369107 2.562336 -1.962268 -0.299039 -7.961282 7.793428 0.752515 3.733809 -10.755876 -0.105472 0.000000 0.000000 0.000000 0.000000 0.000000 0.000000 -0.073654 -0.250273 37.712525 -0.000000 0.000000 0.000000 -0.000000 0.000000 0.000000 0.000000 0.000000 0.000000 -0.073654 -0.250273 37.712525 -0.000000 0.000000 0.000000 -17.799768 -24.742791 1.089676 0.000000 0.000000 0.000000
-29.953607 82.945458 341.827034 0.227807 0.170870 -37.699335 -0.075759 -0.274505 37.698814 -0.000000 0.000000 0.000000 -0.000000 0.000000 0.000000 0.000000 0.000000 0.000000 0.254204 2.057861 -0.562061 2.551004 1.764858 -0.214318 3.158915 -4.316929 0.101825 -3.803137 1.768746 1.066985 0.000000 0.000000 0.000000 0.000000 0.000000 0.000000 1.234664 2.745843 0.550599 6.183694 -2.047685 -0.303063 -7.659649 9.676589 2.535781 -0.237285 -10.418315 -2.584234 0.000000 0.000000 0.000000 0.000000 0.000000 0.000000 -0.075759 -0.274505 37.698814 -0.000000 0.000000 0.000000 -0.000000 0.000000 0.000000 0.000000 0.000000 0.000000 -0.075759 -0.274505 37.698814 -0.000000 0.000000 0.000000 -12.618220 -17.567420 1.967189 0.000000 0.000000 0.000000
-30.057351 82.952647 341.854583 0.136457 0.157018 -37.774322 -0.011678 -0.207699 37.774114 -0.000000 0.000000 0.000000 -0.000000 0.000000 0.000000 0.000000 0.000000 0.000000 -0.643206 4.126182 -0.791490 4.080475 5.123270 -0.195438 0.663523 -3.907549 0.309630 0.385676 -3.755963 1.168627 0.000000 0.000000 0.000000 0.000000 0.000000 0.000000 2.111546 3.183849 0.781910 10.768248 -1.412749 -0.346311 -7.027674 10.258077 4.334556 -0.175806 -10.393014 -4.608912 0.000000 0.000000 0.000000 0.000000 0.000000 0.000000 -0.011678 -0.207699 37.774114 -0.000000 0.000000 0.000000 -0.630258 0.276168 0.580580 0.000000 0.000000 0.000000 -0.011678 -0.207699 37.774114 -0.000000 0.000000 0.000000 -4.764310 -6.419963 1.365977 0.000000 0.000000 0.000000
-30.251779 82.961554 341.915641 -0.031400 0.112963 -37.963355 0.094246 -0.069745 37.963443 -0.000000 0.000000 0.000000 0.024317 0.935223 -0.331021 0.000000 0.000000 0.000000 -2.070973 7.418196 -1.086510 5.623603 8.723227 0.185046 -0.400208 -5.869045 0.334029 3.301002 -8.286303 1.816368 0.000000 0.000000 0.000000 0.000000 0.000000 0.000000 2.756192 3.535634 0.950076 18.387634 -0.878264 -0.261507 -7.173416 11.078793 6.538238 -2.519733 -9.540732 -7.678473 0.000000 0.000000 0.000000 0.000000 0.000000 0.000000 0.094246 -0.069745 37.963443 -0.000000 0.000000 0.000000 -0.842254 0.564368 0.794949 0.000000 0.000000 0.000000 0.094246 -0.069745 37.963443 -0.000000 0.000000 0.000000 -0.000000 0.000000 0.000000 0.000000 0.000000 0.000000
